PathFileType	4	(X/Y/Z)	Patient4_TMGait_0pt5_01_left_06.trc.trc
DataRate	CameraRate	NumFrames	NumMarkers	Units	OrigDataRate	OrigDataStartFrame	OrigNumFrames
71.065989847716	71.065989847716	4	33	mm	71.065989847716	18	       141
Frame#	Time	L.ASIS			Sacral			L.Shoulder			Chest			R.Shoulder			Neck			R.ASIS			R.Thigh.Superior			R.Thigh.Lateral			R.Thigh.Inferior			R.Patella			L.Thigh.Superior			L.Thigh.Lateral			L.Thigh.Inferior			L.Patella			L.Shank.Superior			L.Shank.Lateral			L.Shank.Inferior			R.Shank.Superior			R.Shank.Lateral			R.Shank.Inferior			R.Heel			R.Midfoot.Superior			R.Midfoot.Lateral			R.Toe			L.Heel			L.Midfoot.Lateral			L.Midfoot.Superior			L.Toe			L.Elbow			L.Wrist			R.Elbow			R.Wrist			
		X1	Y1	Z1	X2	Y2	Z2	X3	Y3	Z3	X4	Y4	Z4	X5	Y5	Z5	X6	Y6	Z6	X7	Y7	Z7	X8	Y8	Z8	X9	Y9	Z9	X10	Y10	Z10	X11	Y11	Z11	X12	Y12	Z12	X13	Y13	Z13	X14	Y14	Z14	X15	Y15	Z15	X16	Y16	Z16	X17	Y17	Z17	X18	Y18	Z18	X19	Y19	Z19	X20	Y20	Z20	X21	Y21	Z21	X22	Y22	Z22	X23	Y23	Z23	X24	Y24	Z24	X25	Y25	Z25	X26	Y26	Z26	X27	Y27	Z27	X28	Y28	Z28	X29	Y29	Z29	X30	Y30	Z30	X31	Y31	Z31	X32	Y32	Z32	X33	Y33	Z33	

18	8.219214285714	692.900519173409	967.607781984256	375.957876872540	488.586179946481	1004.767326771433	547.950857631916	639.376808566612	1447.137746173658	383.497001304284	753.981063679577	1366.428899013392	531.122394237451	682.640488498669	1426.270950933826	716.239160569749	648.439992627785	1497.489199594196	538.499264140536	721.815516169625	941.182201778705	650.229271719624	731.052440009169	732.573191347024	618.229025442846	633.204218704569	632.075594287748	676.689225993698	699.265932438188	571.349667220229	596.983534471590	683.923242000226	483.275669735422	599.508775393805	763.963052016117	775.805798390504	391.587673179682	706.203269129358	651.086839203174	314.102395567497	811.115231449888	587.736023352179	367.602575029224	838.649218320632	526.594538010231	363.496310040282	826.913379907843	458.064308784142	352.804975268698	770.145720334181	325.242168202821	299.002624636101	865.786716669512	231.923260952886	349.666625085150	646.173779859667	397.900000280383	602.243044816870	561.618040864045	301.892993475392	659.726051341599	592.994613035767	204.887477616661	592.837384013484	441.014801066074	47.703315898699	558.944101166518	617.216255864087	97.860698953406	590.551754281961	527.471076032160	36.706992896689	628.436164426407	735.137007329776	38.745282694634	609.717427552230	793.606388624763	47.054915762610	384.685466273620	868.704482154287	54.603836920442	305.766639706806	934.357397517797	136.615557753749	324.894684762158	1069.740090745726	115.505894495765	302.323147375537	519.122225108770	1119.161239080901	262.970794647577	489.839548173111	862.096817916301	248.691111633506	790.593164487365	1099.443364322914	816.876198025624	1041.476432063667	1125.489742692043	784.302847728986	
19	8.233285714286	692.860138017232	966.687758974965	374.528435819136	487.752985172317	1003.835893622433	545.590323124107	638.214169303570	1446.221960556766	381.322015186331	752.507271537877	1365.762078349979	529.283512178775	680.645199800496	1425.631552715931	714.173259900626	646.675893288027	1496.576127284867	536.155085542570	720.318364911231	940.407574617839	649.061416193119	728.026219292638	731.354810378636	617.379855715769	629.124126545709	631.628588870810	675.685779052634	694.750193961234	570.306259456924	596.178694318053	678.730355944452	482.371867559676	598.615081779353	764.678063408953	775.497598880577	391.446783493543	708.120255355540	650.071676699945	313.757900020830	812.693067829091	587.237800970246	368.011070231496	840.189550939505	525.577160485734	364.186020871791	827.909440522200	456.586778054429	353.800070785965	770.019448715568	324.390073491509	300.151771927090	864.120210469731	230.282694823348	351.682094432046	640.568244688672	397.177052405673	601.495762235425	555.566182349789	301.659159165976	659.182558134958	586.389367721043	204.403515985661	592.364748757156	433.899669180448	47.358978453261	558.809141159255	609.998223721454	97.720180438239	590.347040744011	520.336395355987	36.619284932032	628.396021218282	728.042340478942	38.835226853868	609.731107007230	789.701134814639	46.741447385245	386.687629674253	865.243151893108	53.205224570920	308.161873915328	931.850117564160	134.145214669621	327.608369843384	1066.903309097681	111.103459273685	305.786517149369	514.797021300600	1119.422174517951	262.247954577496	483.837343026528	862.459054048921	249.079847840923	790.321353815854	1099.492323339469	814.233353999692	1040.159353606057	1129.733339071282	779.827027259385	
20	8.247357142857	693.082103278454	965.502875486006	373.014452083059	487.084622144596	1002.674260353331	542.984279943511	637.125891150815	1445.067552525947	378.908114742134	751.062947566456	1364.950878463177	527.290158997844	678.535690860417	1424.847481096026	711.905271595234	644.897744380880	1495.462382272301	533.546048521966	718.965400979600	939.464040090734	647.803339036279	725.255269140559	729.960635240321	616.464508090602	625.296902058852	631.010225609884	674.569768493382	690.479446302150	569.095129553753	595.232087169648	673.742021033293	481.280023943738	597.528674671572	765.585908147518	774.848690040295	391.471371046460	710.343706992917	648.835630647960	313.445387809727	814.374164245558	586.456194095916	368.725809468495	841.663691809884	523.972349380386	365.105478999901	828.553417471030	454.406774089598	354.972616789543	768.833489332728	323.112013972294	301.478751292759	860.831853554699	227.717450625190	353.978481769947	635.159041713240	396.290089066163	600.599388283399	549.721433037503	301.291031082759	658.559956742377	579.840355935015	203.786158157493	591.775417211910	426.750119844355	46.940010565062	558.654316988579	602.690414750972	97.525932257285	590.086258832807	513.153587871282	36.510787573228	628.352499723822	720.897603489852	38.932133919350	609.749540696590	783.202164396252	45.888900954957	388.837796945266	859.181988527824	51.119083743453	310.688396485066	927.147555798155	130.552982262119	330.694146252040	1061.737413162225	104.934639487114	309.483796191447	511.214248735271	1119.165142214807	261.235457208219	479.087924328685	862.211707110259	249.083206855337	789.768485896161	1099.377406960419	811.724788566414	1038.676476142759	1132.996783627985	775.632833360272	
21	8.261428571429	693.549697044632	964.053384342841	371.432702050262	486.556197477587	1001.296560398332	540.144386305041	636.153130830679	1443.664557865925	376.241905205656	749.673036637682	1363.989539393985	525.145391513654	676.324052540386	1423.934261091897	709.424864904897	643.134985088072	1494.157636842612	530.669611522476	717.765963597558	938.345065714376	646.457207966407	722.793974689803	728.392000577853	615.439320139811	621.810731073113	630.198625845228	673.314820021784	686.534894625289	567.709153857048	594.093871613802	669.046253046049	479.975747765199	596.200442349064	766.636056570363	773.823895678777	391.638918769116	712.714054581280	647.386120227291	313.172694640867	816.039642329592	585.383568937362	369.709881770043	842.932568780097	521.833424716597	366.260696671807	828.787111283894	451.626110806350	356.287283911240	766.731748055718	321.446949542155	302.897308091569	856.196735635597	224.406422599415	356.454626128977	630.013368903737	395.216687376375	599.511170113920	544.152085881380	300.783508419058	657.834595785918	573.384068526604	203.030940680110	591.048883236150	419.581406011282	46.468344266171	558.481275826200	595.306912339792	97.285250244028	589.767785713768	505.935180097549	36.391543518716	628.302793357726	713.709002682354	39.023216862870	609.773857544395	774.613470421723	44.620569830866	390.979723021176	851.056183315255	48.532103874709	313.218715782011	920.668059953899	126.093070494709	334.053756499499	1054.701370616674	97.404102444242	313.389495224314	508.475453441908	1118.334203595410	259.874477901141	475.656091484675	861.310620395267	248.657091324899	788.897697486973	1099.071716594877	809.341939628520	1037.034546488966	1135.228580283331	771.734878528863	
